<svg width="445" height="38" viewBox="0 0 445 38" fill="none" xmlns="http://www.w3.org/2000/svg">
<mask id="path-1-outside-1_26_121" maskUnits="userSpaceOnUse" x="2" y="-2" width="442" height="42" fill="black">
<rect fill="white" x="2" y="-2" width="442" height="42"/>
<path d="M9.93564 0.636363V37H4.44913V0.636363H9.93564ZM47.2758 0.636363V37H42.2332L23.7496 10.331H23.4122V37H17.9257V0.636363H23.0038L41.5052 27.3409H41.8426V0.636363H47.2758ZM53.4859 5.35938V0.636363H81.6286V5.35938H70.2828V37H64.814V5.35938H53.4859ZM87.8476 37V0.636363H100.809C103.626 0.636363 105.964 1.12168 107.823 2.09233C109.693 3.06297 111.09 4.40649 112.013 6.12287C112.936 7.82741 113.398 9.7983 113.398 12.0355C113.398 14.2609 112.93 16.2199 111.995 17.9126C111.072 19.5935 109.675 20.9015 107.805 21.8366C105.947 22.7718 103.609 23.2393 100.791 23.2393H90.9726V18.5163H100.294C102.07 18.5163 103.514 18.2618 104.627 17.7528C105.751 17.2438 106.574 16.504 107.095 15.5334C107.616 14.5627 107.876 13.3968 107.876 12.0355C107.876 10.6624 107.61 9.47277 107.077 8.46662C106.556 7.46046 105.733 6.69105 104.609 6.15838C103.496 5.61387 102.034 5.34162 100.223 5.34162H93.3341V37H87.8476ZM105.799 20.5938L114.783 37H108.533L99.7261 20.5938H105.799ZM151.661 18.8182C151.661 22.7008 150.951 26.0388 149.531 28.8324C148.11 31.6141 146.163 33.7566 143.689 35.2599C141.227 36.7514 138.428 37.4972 135.291 37.4972C132.142 37.4972 129.331 36.7514 126.857 35.2599C124.395 33.7566 122.453 31.6082 121.033 28.8146C119.612 26.0211 118.902 22.6889 118.902 18.8182C118.902 14.9356 119.612 11.6035 121.033 8.82173C122.453 6.02817 124.395 3.88565 126.857 2.39418C129.331 0.89086 132.142 0.139203 135.291 0.139203C138.428 0.139203 141.227 0.89086 143.689 2.39418C146.163 3.88565 148.11 6.02817 149.531 8.82173C150.951 11.6035 151.661 14.9356 151.661 18.8182ZM146.228 18.8182C146.228 15.8589 145.749 13.3672 144.79 11.343C143.843 9.30705 142.541 7.76823 140.884 6.72656C139.238 5.67306 137.374 5.14631 135.291 5.14631C133.196 5.14631 131.325 5.67306 129.68 6.72656C128.035 7.76823 126.733 9.30705 125.774 11.343C124.827 13.3672 124.353 15.8589 124.353 18.8182C124.353 21.7775 124.827 24.2751 125.774 26.3111C126.733 28.3352 128.035 29.8741 129.68 30.9276C131.325 31.9692 133.196 32.4901 135.291 32.4901C137.374 32.4901 139.238 31.9692 140.884 30.9276C142.541 29.8741 143.843 28.3352 144.79 26.3111C145.749 24.2751 146.228 21.7775 146.228 18.8182ZM170.274 37H158.502V0.636363H170.647C174.21 0.636363 177.27 1.36435 179.826 2.82031C182.383 4.26444 184.342 6.34185 185.704 9.05256C187.077 11.7514 187.763 14.9889 187.763 18.7649C187.763 22.5528 187.071 25.808 185.686 28.5305C184.313 31.2531 182.324 33.3482 179.72 34.8161C177.116 36.272 173.967 37 170.274 37ZM163.988 32.206H169.972C172.742 32.206 175.044 31.6851 176.879 30.6435C178.714 29.59 180.087 28.0689 180.998 26.0803C181.91 24.0798 182.366 21.6413 182.366 18.7649C182.366 15.9122 181.91 13.4915 180.998 11.5028C180.099 9.5142 178.755 8.00497 176.968 6.97514C175.18 5.94531 172.961 5.4304 170.309 5.4304H163.988V32.206ZM217.97 0.636363H223.474V24.5533C223.474 27.0982 222.877 29.3532 221.681 31.3182C220.485 33.2713 218.805 34.8101 216.638 35.9347C214.472 37.0473 211.933 37.6037 209.021 37.6037C206.121 37.6037 203.588 37.0473 201.422 35.9347C199.256 34.8101 197.575 33.2713 196.379 31.3182C195.184 29.3532 194.586 27.0982 194.586 24.5533V0.636363H200.072V24.1094C200.072 25.7547 200.433 27.2166 201.155 28.495C201.889 29.7734 202.925 30.7796 204.263 31.5135C205.6 32.2356 207.186 32.5966 209.021 32.5966C210.868 32.5966 212.46 32.2356 213.797 31.5135C215.147 30.7796 216.177 29.7734 216.887 28.495C217.609 27.2166 217.97 25.7547 217.97 24.1094V0.636363ZM261.653 12.4616H256.114C255.901 11.2779 255.504 10.2363 254.924 9.33665C254.344 8.43703 253.634 7.67353 252.793 7.04616C251.953 6.4188 251.012 5.94531 249.97 5.62571C248.94 5.30611 247.845 5.14631 246.685 5.14631C244.59 5.14631 242.714 5.67306 241.057 6.72656C239.412 7.78007 238.109 9.32481 237.151 11.3608C236.204 13.3968 235.73 15.8826 235.73 18.8182C235.73 21.7775 236.204 24.2751 237.151 26.3111C238.109 28.3471 239.417 29.8859 241.075 30.9276C242.732 31.9692 244.596 32.4901 246.668 32.4901C247.816 32.4901 248.905 32.3362 249.935 32.0284C250.976 31.7088 251.917 31.2412 252.758 30.6257C253.598 30.0102 254.309 29.2585 254.889 28.3707C255.48 27.4711 255.889 26.4413 256.114 25.2812L261.653 25.299C261.358 27.0864 260.783 28.7318 259.931 30.2351C259.091 31.7266 258.008 33.0168 256.682 34.1058C255.368 35.183 253.865 36.0175 252.172 36.6094C250.479 37.2012 248.633 37.4972 246.632 37.4972C243.484 37.4972 240.678 36.7514 238.216 35.2599C235.754 33.7566 233.813 31.6082 232.392 28.8146C230.984 26.0211 230.279 22.6889 230.279 18.8182C230.279 14.9356 230.989 11.6035 232.41 8.82173C233.83 6.02817 235.772 3.88565 238.234 2.39418C240.696 0.89086 243.495 0.139203 246.632 0.139203C248.562 0.139203 250.361 0.417376 252.03 0.973722C253.711 1.51823 255.22 2.32315 256.558 3.38849C257.895 4.442 259.002 5.73224 259.878 7.25923C260.754 8.77438 261.346 10.5085 261.653 12.4616ZM268.219 37V0.636363H291.017V5.35938H273.705V16.4389H289.827V21.1442H273.705V32.277H291.23V37H268.219ZM309.785 5.35938V0.636363H337.927V5.35938H326.582V37H321.113V5.35938H309.785ZM349.633 0.636363V37H344.146V0.636363H349.633ZM355.83 5.35938V0.636363H383.972V5.35938H372.627V37H367.158V5.35938H355.83ZM390.191 37V0.636363H395.678V32.277H412.155V37H390.191ZM418.414 37V0.636363H441.212V5.35938H423.9V16.4389H440.023V21.1442H423.9V32.277H441.425V37H418.414Z"/>
</mask>
<g filter="url(#filter0_i_26_121)">
<path d="M9.93564 0.636363V37H4.44913V0.636363H9.93564ZM47.2758 0.636363V37H42.2332L23.7496 10.331H23.4122V37H17.9257V0.636363H23.0038L41.5052 27.3409H41.8426V0.636363H47.2758ZM53.4859 5.35938V0.636363H81.6286V5.35938H70.2828V37H64.814V5.35938H53.4859ZM87.8476 37V0.636363H100.809C103.626 0.636363 105.964 1.12168 107.823 2.09233C109.693 3.06297 111.09 4.40649 112.013 6.12287C112.936 7.82741 113.398 9.7983 113.398 12.0355C113.398 14.2609 112.93 16.2199 111.995 17.9126C111.072 19.5935 109.675 20.9015 107.805 21.8366C105.947 22.7718 103.609 23.2393 100.791 23.2393H90.9726V18.5163H100.294C102.07 18.5163 103.514 18.2618 104.627 17.7528C105.751 17.2438 106.574 16.504 107.095 15.5334C107.616 14.5627 107.876 13.3968 107.876 12.0355C107.876 10.6624 107.61 9.47277 107.077 8.46662C106.556 7.46046 105.733 6.69105 104.609 6.15838C103.496 5.61387 102.034 5.34162 100.223 5.34162H93.3341V37H87.8476ZM105.799 20.5938L114.783 37H108.533L99.7261 20.5938H105.799ZM151.661 18.8182C151.661 22.7008 150.951 26.0388 149.531 28.8324C148.11 31.6141 146.163 33.7566 143.689 35.2599C141.227 36.7514 138.428 37.4972 135.291 37.4972C132.142 37.4972 129.331 36.7514 126.857 35.2599C124.395 33.7566 122.453 31.6082 121.033 28.8146C119.612 26.0211 118.902 22.6889 118.902 18.8182C118.902 14.9356 119.612 11.6035 121.033 8.82173C122.453 6.02817 124.395 3.88565 126.857 2.39418C129.331 0.89086 132.142 0.139203 135.291 0.139203C138.428 0.139203 141.227 0.89086 143.689 2.39418C146.163 3.88565 148.11 6.02817 149.531 8.82173C150.951 11.6035 151.661 14.9356 151.661 18.8182ZM146.228 18.8182C146.228 15.8589 145.749 13.3672 144.79 11.343C143.843 9.30705 142.541 7.76823 140.884 6.72656C139.238 5.67306 137.374 5.14631 135.291 5.14631C133.196 5.14631 131.325 5.67306 129.68 6.72656C128.035 7.76823 126.733 9.30705 125.774 11.343C124.827 13.3672 124.353 15.8589 124.353 18.8182C124.353 21.7775 124.827 24.2751 125.774 26.3111C126.733 28.3352 128.035 29.8741 129.68 30.9276C131.325 31.9692 133.196 32.4901 135.291 32.4901C137.374 32.4901 139.238 31.9692 140.884 30.9276C142.541 29.8741 143.843 28.3352 144.79 26.3111C145.749 24.2751 146.228 21.7775 146.228 18.8182ZM170.274 37H158.502V0.636363H170.647C174.21 0.636363 177.27 1.36435 179.826 2.82031C182.383 4.26444 184.342 6.34185 185.704 9.05256C187.077 11.7514 187.763 14.9889 187.763 18.7649C187.763 22.5528 187.071 25.808 185.686 28.5305C184.313 31.2531 182.324 33.3482 179.72 34.8161C177.116 36.272 173.967 37 170.274 37ZM163.988 32.206H169.972C172.742 32.206 175.044 31.6851 176.879 30.6435C178.714 29.59 180.087 28.0689 180.998 26.0803C181.91 24.0798 182.366 21.6413 182.366 18.7649C182.366 15.9122 181.91 13.4915 180.998 11.5028C180.099 9.5142 178.755 8.00497 176.968 6.97514C175.18 5.94531 172.961 5.4304 170.309 5.4304H163.988V32.206ZM217.97 0.636363H223.474V24.5533C223.474 27.0982 222.877 29.3532 221.681 31.3182C220.485 33.2713 218.805 34.8101 216.638 35.9347C214.472 37.0473 211.933 37.6037 209.021 37.6037C206.121 37.6037 203.588 37.0473 201.422 35.9347C199.256 34.8101 197.575 33.2713 196.379 31.3182C195.184 29.3532 194.586 27.0982 194.586 24.5533V0.636363H200.072V24.1094C200.072 25.7547 200.433 27.2166 201.155 28.495C201.889 29.7734 202.925 30.7796 204.263 31.5135C205.6 32.2356 207.186 32.5966 209.021 32.5966C210.868 32.5966 212.46 32.2356 213.797 31.5135C215.147 30.7796 216.177 29.7734 216.887 28.495C217.609 27.2166 217.97 25.7547 217.97 24.1094V0.636363ZM261.653 12.4616H256.114C255.901 11.2779 255.504 10.2363 254.924 9.33665C254.344 8.43703 253.634 7.67353 252.793 7.04616C251.953 6.4188 251.012 5.94531 249.97 5.62571C248.94 5.30611 247.845 5.14631 246.685 5.14631C244.59 5.14631 242.714 5.67306 241.057 6.72656C239.412 7.78007 238.109 9.32481 237.151 11.3608C236.204 13.3968 235.73 15.8826 235.73 18.8182C235.73 21.7775 236.204 24.2751 237.151 26.3111C238.109 28.3471 239.417 29.8859 241.075 30.9276C242.732 31.9692 244.596 32.4901 246.668 32.4901C247.816 32.4901 248.905 32.3362 249.935 32.0284C250.976 31.7088 251.917 31.2412 252.758 30.6257C253.598 30.0102 254.309 29.2585 254.889 28.3707C255.48 27.4711 255.889 26.4413 256.114 25.2812L261.653 25.299C261.358 27.0864 260.783 28.7318 259.931 30.2351C259.091 31.7266 258.008 33.0168 256.682 34.1058C255.368 35.183 253.865 36.0175 252.172 36.6094C250.479 37.2012 248.633 37.4972 246.632 37.4972C243.484 37.4972 240.678 36.7514 238.216 35.2599C235.754 33.7566 233.813 31.6082 232.392 28.8146C230.984 26.0211 230.279 22.6889 230.279 18.8182C230.279 14.9356 230.989 11.6035 232.41 8.82173C233.83 6.02817 235.772 3.88565 238.234 2.39418C240.696 0.89086 243.495 0.139203 246.632 0.139203C248.562 0.139203 250.361 0.417376 252.03 0.973722C253.711 1.51823 255.22 2.32315 256.558 3.38849C257.895 4.442 259.002 5.73224 259.878 7.25923C260.754 8.77438 261.346 10.5085 261.653 12.4616ZM268.219 37V0.636363H291.017V5.35938H273.705V16.4389H289.827V21.1442H273.705V32.277H291.23V37H268.219ZM309.785 5.35938V0.636363H337.927V5.35938H326.582V37H321.113V5.35938H309.785ZM349.633 0.636363V37H344.146V0.636363H349.633ZM355.83 5.35938V0.636363H383.972V5.35938H372.627V37H367.158V5.35938H355.83ZM390.191 37V0.636363H395.678V32.277H412.155V37H390.191ZM418.414 37V0.636363H441.212V5.35938H423.9V16.4389H440.023V21.1442H423.9V32.277H441.425V37H418.414Z" fill="#60A0B5"/>
<path d="M9.93564 0.636363V37H4.44913V0.636363H9.93564ZM47.2758 0.636363V37H42.2332L23.7496 10.331H23.4122V37H17.9257V0.636363H23.0038L41.5052 27.3409H41.8426V0.636363H47.2758ZM53.4859 5.35938V0.636363H81.6286V5.35938H70.2828V37H64.814V5.35938H53.4859ZM87.8476 37V0.636363H100.809C103.626 0.636363 105.964 1.12168 107.823 2.09233C109.693 3.06297 111.09 4.40649 112.013 6.12287C112.936 7.82741 113.398 9.7983 113.398 12.0355C113.398 14.2609 112.93 16.2199 111.995 17.9126C111.072 19.5935 109.675 20.9015 107.805 21.8366C105.947 22.7718 103.609 23.2393 100.791 23.2393H90.9726V18.5163H100.294C102.07 18.5163 103.514 18.2618 104.627 17.7528C105.751 17.2438 106.574 16.504 107.095 15.5334C107.616 14.5627 107.876 13.3968 107.876 12.0355C107.876 10.6624 107.61 9.47277 107.077 8.46662C106.556 7.46046 105.733 6.69105 104.609 6.15838C103.496 5.61387 102.034 5.34162 100.223 5.34162H93.3341V37H87.8476ZM105.799 20.5938L114.783 37H108.533L99.7261 20.5938H105.799ZM151.661 18.8182C151.661 22.7008 150.951 26.0388 149.531 28.8324C148.11 31.6141 146.163 33.7566 143.689 35.2599C141.227 36.7514 138.428 37.4972 135.291 37.4972C132.142 37.4972 129.331 36.7514 126.857 35.2599C124.395 33.7566 122.453 31.6082 121.033 28.8146C119.612 26.0211 118.902 22.6889 118.902 18.8182C118.902 14.9356 119.612 11.6035 121.033 8.82173C122.453 6.02817 124.395 3.88565 126.857 2.39418C129.331 0.89086 132.142 0.139203 135.291 0.139203C138.428 0.139203 141.227 0.89086 143.689 2.39418C146.163 3.88565 148.11 6.02817 149.531 8.82173C150.951 11.6035 151.661 14.9356 151.661 18.8182ZM146.228 18.8182C146.228 15.8589 145.749 13.3672 144.79 11.343C143.843 9.30705 142.541 7.76823 140.884 6.72656C139.238 5.67306 137.374 5.14631 135.291 5.14631C133.196 5.14631 131.325 5.67306 129.68 6.72656C128.035 7.76823 126.733 9.30705 125.774 11.343C124.827 13.3672 124.353 15.8589 124.353 18.8182C124.353 21.7775 124.827 24.2751 125.774 26.3111C126.733 28.3352 128.035 29.8741 129.68 30.9276C131.325 31.9692 133.196 32.4901 135.291 32.4901C137.374 32.4901 139.238 31.9692 140.884 30.9276C142.541 29.8741 143.843 28.3352 144.79 26.3111C145.749 24.2751 146.228 21.7775 146.228 18.8182ZM170.274 37H158.502V0.636363H170.647C174.21 0.636363 177.27 1.36435 179.826 2.82031C182.383 4.26444 184.342 6.34185 185.704 9.05256C187.077 11.7514 187.763 14.9889 187.763 18.7649C187.763 22.5528 187.071 25.808 185.686 28.5305C184.313 31.2531 182.324 33.3482 179.72 34.8161C177.116 36.272 173.967 37 170.274 37ZM163.988 32.206H169.972C172.742 32.206 175.044 31.6851 176.879 30.6435C178.714 29.59 180.087 28.0689 180.998 26.0803C181.91 24.0798 182.366 21.6413 182.366 18.7649C182.366 15.9122 181.91 13.4915 180.998 11.5028C180.099 9.5142 178.755 8.00497 176.968 6.97514C175.18 5.94531 172.961 5.4304 170.309 5.4304H163.988V32.206ZM217.97 0.636363H223.474V24.5533C223.474 27.0982 222.877 29.3532 221.681 31.3182C220.485 33.2713 218.805 34.8101 216.638 35.9347C214.472 37.0473 211.933 37.6037 209.021 37.6037C206.121 37.6037 203.588 37.0473 201.422 35.9347C199.256 34.8101 197.575 33.2713 196.379 31.3182C195.184 29.3532 194.586 27.0982 194.586 24.5533V0.636363H200.072V24.1094C200.072 25.7547 200.433 27.2166 201.155 28.495C201.889 29.7734 202.925 30.7796 204.263 31.5135C205.6 32.2356 207.186 32.5966 209.021 32.5966C210.868 32.5966 212.46 32.2356 213.797 31.5135C215.147 30.7796 216.177 29.7734 216.887 28.495C217.609 27.2166 217.97 25.7547 217.97 24.1094V0.636363ZM261.653 12.4616H256.114C255.901 11.2779 255.504 10.2363 254.924 9.33665C254.344 8.43703 253.634 7.67353 252.793 7.04616C251.953 6.4188 251.012 5.94531 249.97 5.62571C248.94 5.30611 247.845 5.14631 246.685 5.14631C244.59 5.14631 242.714 5.67306 241.057 6.72656C239.412 7.78007 238.109 9.32481 237.151 11.3608C236.204 13.3968 235.73 15.8826 235.73 18.8182C235.73 21.7775 236.204 24.2751 237.151 26.3111C238.109 28.3471 239.417 29.8859 241.075 30.9276C242.732 31.9692 244.596 32.4901 246.668 32.4901C247.816 32.4901 248.905 32.3362 249.935 32.0284C250.976 31.7088 251.917 31.2412 252.758 30.6257C253.598 30.0102 254.309 29.2585 254.889 28.3707C255.48 27.4711 255.889 26.4413 256.114 25.2812L261.653 25.299C261.358 27.0864 260.783 28.7318 259.931 30.2351C259.091 31.7266 258.008 33.0168 256.682 34.1058C255.368 35.183 253.865 36.0175 252.172 36.6094C250.479 37.2012 248.633 37.4972 246.632 37.4972C243.484 37.4972 240.678 36.7514 238.216 35.2599C235.754 33.7566 233.813 31.6082 232.392 28.8146C230.984 26.0211 230.279 22.6889 230.279 18.8182C230.279 14.9356 230.989 11.6035 232.41 8.82173C233.83 6.02817 235.772 3.88565 238.234 2.39418C240.696 0.89086 243.495 0.139203 246.632 0.139203C248.562 0.139203 250.361 0.417376 252.03 0.973722C253.711 1.51823 255.22 2.32315 256.558 3.38849C257.895 4.442 259.002 5.73224 259.878 7.25923C260.754 8.77438 261.346 10.5085 261.653 12.4616ZM268.219 37V0.636363H291.017V5.35938H273.705V16.4389H289.827V21.1442H273.705V32.277H291.23V37H268.219ZM309.785 5.35938V0.636363H337.927V5.35938H326.582V37H321.113V5.35938H309.785ZM349.633 0.636363V37H344.146V0.636363H349.633ZM355.83 5.35938V0.636363H383.972V5.35938H372.627V37H367.158V5.35938H355.83ZM390.191 37V0.636363H395.678V32.277H412.155V37H390.191ZM418.414 37V0.636363H441.212V5.35938H423.9V16.4389H440.023V21.1442H423.9V32.277H441.425V37H418.414Z" fill="url(#paint0_linear_26_121)" fill-opacity="0.2"/>
</g>
<path d="M9.93564 0.636363H11.9356C11.9356 -0.468207 11.0402 -1.36364 9.93564 -1.36364V0.636363ZM9.93564 37V39C11.0402 39 11.9356 38.1046 11.9356 37H9.93564ZM4.44913 37H2.44913C2.44913 38.1046 3.34456 39 4.44913 39V37ZM4.44913 0.636363V-1.36364C3.34456 -1.36364 2.44913 -0.468207 2.44913 0.636363H4.44913ZM7.93564 0.636363V37H11.9356V0.636363H7.93564ZM9.93564 35H4.44913V39H9.93564V35ZM6.44913 37V0.636363H2.44913V37H6.44913ZM4.44913 2.63636H9.93564V-1.36364H4.44913V2.63636ZM47.2758 0.636363H49.2758C49.2758 -0.468207 48.3804 -1.36364 47.2758 -1.36364V0.636363ZM47.2758 37V39C48.3804 39 49.2758 38.1046 49.2758 37H47.2758ZM42.2332 37L40.5894 38.1393C40.9631 38.6784 41.5773 39 42.2332 39V37ZM23.7496 10.331L25.3933 9.19169C25.0197 8.65259 24.4055 8.33097 23.7496 8.33097V10.331ZM23.4122 10.331V8.33097C22.3076 8.33097 21.4122 9.2264 21.4122 10.331H23.4122ZM23.4122 37V39C24.5168 39 25.4122 38.1046 25.4122 37H23.4122ZM17.9257 37H15.9257C15.9257 38.1046 16.8211 39 17.9257 39V37ZM17.9257 0.636363V-1.36364C16.8211 -1.36364 15.9257 -0.468207 15.9257 0.636363H17.9257ZM23.0038 0.636363L24.6478 -0.502626C24.2742 -1.04189 23.6599 -1.36364 23.0038 -1.36364V0.636363ZM41.5052 27.3409L39.8612 28.4799C40.2349 29.0192 40.8492 29.3409 41.5052 29.3409V27.3409ZM41.8426 27.3409V29.3409C42.9472 29.3409 43.8426 28.4455 43.8426 27.3409H41.8426ZM41.8426 0.636363V-1.36364C40.738 -1.36364 39.8426 -0.468207 39.8426 0.636363H41.8426ZM45.2758 0.636363V37H49.2758V0.636363H45.2758ZM47.2758 35H42.2332V39H47.2758V35ZM43.877 35.8607L25.3933 9.19169L22.1058 11.4702L40.5894 38.1393L43.877 35.8607ZM23.7496 8.33097H23.4122V12.331H23.7496V8.33097ZM21.4122 10.331V37H25.4122V10.331H21.4122ZM23.4122 35H17.9257V39H23.4122V35ZM19.9257 37V0.636363H15.9257V37H19.9257ZM17.9257 2.63636H23.0038V-1.36364H17.9257V2.63636ZM21.3598 1.77535L39.8612 28.4799L43.1492 26.2019L24.6478 -0.502626L21.3598 1.77535ZM41.5052 29.3409H41.8426V25.3409H41.5052V29.3409ZM43.8426 27.3409V0.636363H39.8426V27.3409H43.8426ZM41.8426 2.63636H47.2758V-1.36364H41.8426V2.63636ZM53.4859 5.35938H51.4859C51.4859 6.46394 52.3813 7.35938 53.4859 7.35938V5.35938ZM53.4859 0.636363V-1.36364C52.3813 -1.36364 51.4859 -0.468207 51.4859 0.636363H53.4859ZM81.6286 0.636363H83.6286C83.6286 -0.468207 82.7332 -1.36364 81.6286 -1.36364V0.636363ZM81.6286 5.35938V7.35938C82.7332 7.35938 83.6286 6.46394 83.6286 5.35938H81.6286ZM70.2828 5.35938V3.35938C69.1782 3.35938 68.2828 4.25481 68.2828 5.35938H70.2828ZM70.2828 37V39C71.3873 39 72.2828 38.1046 72.2828 37H70.2828ZM64.814 37H62.814C62.814 38.1046 63.7094 39 64.814 39V37ZM64.814 5.35938H66.814C66.814 4.25481 65.9186 3.35938 64.814 3.35938V5.35938ZM55.4859 5.35938V0.636363H51.4859V5.35938H55.4859ZM53.4859 2.63636H81.6286V-1.36364H53.4859V2.63636ZM79.6286 0.636363V5.35938H83.6286V0.636363H79.6286ZM81.6286 3.35938H70.2828V7.35938H81.6286V3.35938ZM68.2828 5.35938V37H72.2828V5.35938H68.2828ZM70.2828 35H64.814V39H70.2828V35ZM66.814 37V5.35938H62.814V37H66.814ZM64.814 3.35938H53.4859V7.35938H64.814V3.35938ZM87.8476 37H85.8476C85.8476 38.1046 86.743 39 87.8476 39V37ZM87.8476 0.636363V-1.36364C86.743 -1.36364 85.8476 -0.468207 85.8476 0.636363H87.8476ZM107.823 2.09233L106.897 3.8651L106.901 3.8675L107.823 2.09233ZM112.013 6.12287L110.252 7.07035L110.254 7.07544L112.013 6.12287ZM111.995 17.9126L110.245 16.9455L110.242 16.9498L111.995 17.9126ZM107.805 21.8366L106.911 20.0478L106.906 20.0501L107.805 21.8366ZM90.9726 23.2393H88.9726C88.9726 24.3439 89.868 25.2393 90.9726 25.2393V23.2393ZM90.9726 18.5163V16.5163C89.868 16.5163 88.9726 17.4118 88.9726 18.5163H90.9726ZM104.627 17.7528L103.802 15.9308L103.795 15.9341L104.627 17.7528ZM107.077 8.46662L105.301 9.38603C105.304 9.3915 105.307 9.39695 105.309 9.40239L107.077 8.46662ZM104.609 6.15838L103.73 7.95481C103.737 7.95854 103.745 7.96223 103.753 7.96586L104.609 6.15838ZM93.3341 5.34162V3.34162C92.2295 3.34162 91.3341 4.23705 91.3341 5.34162H93.3341ZM93.3341 37V39C94.4386 39 95.3341 38.1046 95.3341 37H93.3341ZM105.799 20.5938L107.553 19.6331C107.202 18.9922 106.529 18.5938 105.799 18.5938V20.5938ZM114.783 37V39C115.489 39 116.143 38.6273 116.504 38.0195C116.864 37.4117 116.876 36.659 116.537 36.0394L114.783 37ZM108.533 37L106.771 37.9459C107.119 38.595 107.796 39 108.533 39V37ZM99.7261 20.5938V18.5938C99.0226 18.5938 98.3709 18.9633 98.0097 19.5671C97.6486 20.1708 97.6312 20.9198 97.964 21.5397L99.7261 20.5938ZM89.8476 37V0.636363H85.8476V37H89.8476ZM87.8476 2.63636H100.809V-1.36364H87.8476V2.63636ZM100.809 2.63636C103.41 2.63636 105.405 3.08609 106.897 3.8651L108.749 0.319561C106.523 -0.842724 103.843 -1.36364 100.809 -1.36364V2.63636ZM106.901 3.8675C108.445 4.66871 109.534 5.73701 110.252 7.07034L113.774 5.17539C112.645 3.07596 110.941 1.45723 108.744 0.317159L106.901 3.8675ZM110.254 7.07544C110.996 8.4452 111.398 10.0793 111.398 12.0355H115.398C115.398 9.51728 114.876 7.20962 113.772 5.1703L110.254 7.07544ZM111.398 12.0355C111.398 13.9741 110.993 15.5909 110.245 16.9455L113.746 18.8798C114.868 16.8489 115.398 14.5477 115.398 12.0355H111.398ZM110.242 16.9498C109.532 18.2422 108.452 19.2772 106.911 20.0478L108.699 23.6255C110.899 22.5259 112.612 20.9448 113.748 18.8755L110.242 16.9498ZM106.906 20.0501C105.407 20.8042 103.402 21.2393 100.791 21.2393V25.2393C103.816 25.2393 106.486 24.7394 108.704 23.6232L106.906 20.0501ZM100.791 21.2393H90.9726V25.2393H100.791V21.2393ZM92.9726 23.2393V18.5163H88.9726V23.2393H92.9726ZM90.9726 20.5163H100.294V16.5163H90.9726V20.5163ZM100.294 20.5163C102.238 20.5163 103.995 20.2413 105.459 19.5716L103.795 15.9341C103.033 16.2824 101.902 16.5163 100.294 16.5163V20.5163ZM105.451 19.5749C106.925 18.9077 108.104 17.8833 108.857 16.479L105.332 14.5877C105.044 15.1248 104.577 15.58 103.802 15.9308L105.451 19.5749ZM108.857 16.479C109.567 15.1568 109.876 13.6501 109.876 12.0355H105.876C105.876 13.1435 105.665 13.9687 105.332 14.5877L108.857 16.479ZM109.876 12.0355C109.876 10.4029 109.558 8.879 108.845 7.53084L105.309 9.40239C105.661 10.0665 105.876 10.9219 105.876 12.0355H109.876ZM108.853 7.54721C108.111 6.11377 106.944 5.05147 105.465 4.3509L103.753 7.96586C104.523 8.33063 105.001 8.80715 105.301 9.38603L108.853 7.54721ZM105.488 4.36195C104.005 3.63617 102.209 3.34162 100.223 3.34162V7.34162C101.86 7.34162 102.988 7.59158 103.73 7.95481L105.488 4.36195ZM100.223 3.34162H93.3341V7.34162H100.223V3.34162ZM91.3341 5.34162V37H95.3341V5.34162H91.3341ZM93.3341 35H87.8476V39H93.3341V35ZM104.044 21.5544L113.029 37.9606L116.537 36.0394L107.553 19.6331L104.044 21.5544ZM114.783 35H108.533V39H114.783V35ZM110.295 36.0541L101.488 19.6478L97.964 21.5397L106.771 37.9459L110.295 36.0541ZM99.7261 22.5938H105.799V18.5938H99.7261V22.5938ZM149.531 28.8324L151.312 29.7419L151.314 29.7389L149.531 28.8324ZM143.689 35.2599L144.725 36.9706L144.728 36.9691L143.689 35.2599ZM126.857 35.2599L125.815 36.9669L125.824 36.9728L126.857 35.2599ZM121.033 28.8146L122.816 27.9081L122.816 27.9081L121.033 28.8146ZM121.033 8.82173L122.814 9.73129L122.816 9.72822L121.033 8.82173ZM126.857 2.39418L127.893 4.10479L127.895 4.10336L126.857 2.39418ZM143.689 2.39418L142.647 4.10117L142.657 4.10699L143.689 2.39418ZM149.531 8.82173L147.748 9.72823L147.75 9.73129L149.531 8.82173ZM144.79 11.343L142.977 12.1865L142.983 12.1992L144.79 11.343ZM140.884 6.72656L139.805 8.41088C139.81 8.41389 139.815 8.41687 139.819 8.41984L140.884 6.72656ZM129.68 6.72656L130.75 8.41641L130.758 8.41088L129.68 6.72656ZM125.774 11.343L123.964 10.4909L123.962 10.4955L125.774 11.343ZM125.774 26.3111L123.96 27.1546L123.966 27.1673L125.774 26.3111ZM129.68 30.9276L128.601 32.6119L128.61 32.6174L129.68 30.9276ZM140.884 30.9276L141.954 32.6174L141.957 32.6154L140.884 30.9276ZM144.79 26.3111L142.981 25.459L142.978 25.4636L144.79 26.3111ZM149.661 18.8182C149.661 22.4595 148.996 25.4723 147.748 27.9259L151.314 29.7389C152.907 26.6053 153.661 22.942 153.661 18.8182H149.661ZM147.75 27.9228C146.484 30.4014 144.783 32.2552 142.651 33.5508L144.728 36.9691C147.544 35.2581 149.737 32.8268 151.312 29.7419L147.75 27.9228ZM142.653 33.5493C140.531 34.8347 138.096 35.4972 135.291 35.4972V39.4972C138.759 39.4972 141.923 38.6682 144.725 36.9706L142.653 33.5493ZM135.291 35.4972C132.472 35.4972 130.024 34.834 127.889 33.5471L125.824 36.9728C128.638 38.6689 131.812 39.4972 135.291 39.4972V35.4972ZM127.899 33.553C125.78 32.2593 124.083 30.401 122.816 27.9081L119.25 29.7211C120.824 32.8154 123.009 35.2539 125.815 36.9669L127.899 33.553ZM122.816 27.9081C121.568 25.4538 120.902 22.4466 120.902 18.8182H116.902C116.902 22.9312 117.657 26.5884 119.25 29.7211L122.816 27.9081ZM120.902 18.8182C120.902 15.1765 121.568 12.1712 122.814 9.73129L119.252 7.91218C117.657 11.0357 116.902 14.6947 116.902 18.8182H120.902ZM122.816 9.72822C124.083 7.23648 125.778 5.38603 127.893 4.10479L125.821 0.683558C123.011 2.38527 120.824 4.81986 119.25 7.91524L122.816 9.72822ZM127.895 4.10336C130.029 2.80682 132.475 2.1392 135.291 2.1392V-1.8608C131.809 -1.8608 128.632 -1.0251 125.818 0.684989L127.895 4.10336ZM135.291 2.1392C138.093 2.1392 140.526 2.8061 142.647 4.10114L144.731 0.687206C141.928 -1.02438 138.762 -1.8608 135.291 -1.8608V2.1392ZM142.657 4.10699C144.783 5.38884 146.482 7.23893 147.748 9.72822L151.314 7.91524C149.738 4.81741 147.543 2.38247 144.722 0.681362L142.657 4.10699ZM147.75 9.73129C148.996 12.1712 149.661 15.1765 149.661 18.8182H153.661C153.661 14.6947 152.907 11.0357 151.312 7.91218L147.75 9.73129ZM148.228 18.8182C148.228 15.6537 147.717 12.8502 146.598 10.4869L142.983 12.1992C143.781 13.8842 144.228 16.0641 144.228 18.8182H148.228ZM146.603 10.4996C145.518 8.16681 143.978 6.30903 141.948 5.03329L139.819 8.41984C141.104 9.22743 142.168 10.4473 142.977 12.1865L146.603 10.4996ZM141.962 5.04224C139.973 3.76876 137.73 3.14631 135.291 3.14631V7.14631C137.018 7.14631 138.504 7.57736 139.805 8.41088L141.962 5.04224ZM135.291 3.14631C132.842 3.14631 130.592 3.76756 128.602 5.04224L130.758 8.41088C132.058 7.57856 133.549 7.14631 135.291 7.14631V3.14631ZM128.61 5.03674C126.596 6.31178 125.059 8.16579 123.964 10.4909L127.583 12.1951C128.406 10.4483 129.473 9.22468 130.75 8.41638L128.61 5.03674ZM123.962 10.4955C122.858 12.8563 122.353 15.6566 122.353 18.8182H126.353C126.353 16.0612 126.796 13.878 127.585 12.1905L123.962 10.4955ZM122.353 18.8182C122.353 21.9804 122.858 24.7844 123.96 27.1545L127.587 25.4676C126.796 23.7658 126.353 21.5746 126.353 18.8182H122.353ZM123.966 27.1673C125.062 29.4796 126.596 31.3279 128.602 32.6119L130.758 29.2432C129.473 28.4202 128.403 27.1908 127.581 25.4549L123.966 27.1673ZM128.61 32.6174C130.6 33.8771 132.847 34.4901 135.291 34.4901V30.4901C133.544 30.4901 132.051 30.0613 130.75 29.2377L128.61 32.6174ZM135.291 34.4901C137.725 34.4901 139.966 33.8759 141.954 32.6174L139.814 29.2377C138.511 30.0625 137.023 30.4901 135.291 30.4901V34.4901ZM141.957 32.6154C143.978 31.3306 145.516 29.4786 146.602 27.1586L142.978 25.4636C142.17 27.1919 141.104 28.4175 139.811 29.2397L141.957 32.6154ZM146.599 27.1632C147.717 24.7906 148.228 21.9833 148.228 18.8182H144.228C144.228 21.5716 143.781 23.7596 142.981 25.459L146.599 27.1632ZM158.502 37H156.502C156.502 38.1046 157.397 39 158.502 39V37ZM158.502 0.636363V-1.36364C157.397 -1.36364 156.502 -0.468207 156.502 0.636363H158.502ZM179.826 2.82031L178.837 4.55829L178.843 4.56174L179.826 2.82031ZM185.704 9.05256L183.916 9.95012L183.921 9.95947L185.704 9.05256ZM185.686 28.5305L183.903 27.6237L183.9 27.6299L185.686 28.5305ZM179.72 34.8161L180.696 36.5617L180.702 36.5584L179.72 34.8161ZM163.988 32.206H161.988C161.988 33.3105 162.884 34.206 163.988 34.206V32.206ZM176.879 30.6435L177.866 32.3827L177.875 32.3779L176.879 30.6435ZM180.998 26.0803L182.816 26.9136L182.818 26.9095L180.998 26.0803ZM180.998 11.5028L179.176 12.3272L179.18 12.3362L180.998 11.5028ZM176.968 6.97514L175.969 8.70808L175.969 8.70809L176.968 6.97514ZM163.988 5.4304V3.4304C162.884 3.4304 161.988 4.32583 161.988 5.4304H163.988ZM170.274 35H158.502V39H170.274V35ZM160.502 37V0.636363H156.502V37H160.502ZM158.502 2.63636H170.647V-1.36364H158.502V2.63636ZM170.647 2.63636C173.936 2.63636 176.639 3.30687 178.837 4.55828L180.816 1.08234C177.9 -0.578179 174.484 -1.36364 170.647 -1.36364V2.63636ZM178.843 4.56174C181.042 5.80387 182.727 7.58183 183.916 9.9501L187.491 8.15501C185.958 5.10188 183.724 2.72501 180.81 1.07889L178.843 4.56174ZM183.921 9.95947C185.12 12.3165 185.763 15.2279 185.763 18.7649H189.763C189.763 14.7499 189.033 11.1863 187.486 8.14564L183.921 9.95947ZM185.763 18.7649C185.763 22.3118 185.115 25.2415 183.903 27.6237L187.468 29.4373C189.026 26.3745 189.763 22.7938 189.763 18.7649H185.763ZM183.9 27.6299C182.702 30.006 180.989 31.8047 178.738 33.0737L180.702 36.5584C183.659 34.8918 185.924 32.5002 187.472 29.4312L183.9 27.6299ZM178.744 33.0704C176.501 34.3243 173.706 35 170.274 35V39C174.228 39 177.73 38.2197 180.696 36.5617L178.744 33.0704ZM163.988 34.206H169.972V30.206H163.988V34.206ZM169.972 34.206C172.983 34.206 175.651 33.6406 177.866 32.3827L175.892 28.9042C174.438 29.7297 172.501 30.206 169.972 30.206V34.206ZM177.875 32.3779C180.084 31.1096 181.738 29.2671 182.816 26.9136L179.18 25.2469C178.436 26.8706 177.344 28.0704 175.883 28.909L177.875 32.3779ZM182.818 26.9095C183.879 24.5815 184.366 21.843 184.366 18.7649H180.366C180.366 21.4396 179.941 23.5781 179.178 25.251L182.818 26.9095ZM184.366 18.7649C184.366 15.7083 183.878 12.9864 182.816 10.6695L179.18 12.3362C179.941 13.9966 180.366 16.116 180.366 18.7649H184.366ZM182.821 10.6785C181.759 8.33173 180.138 6.49369 177.966 5.2422L175.969 8.70809C177.372 9.51625 178.438 10.6967 179.176 12.3272L182.821 10.6785ZM177.966 5.2422C175.8 3.99428 173.213 3.4304 170.309 3.4304V7.4304C172.708 7.4304 174.56 7.89635 175.969 8.70808L177.966 5.2422ZM170.309 3.4304H163.988V7.4304H170.309V3.4304ZM161.988 5.4304V32.206H165.988V5.4304H161.988ZM217.97 0.636363V-1.36364C216.866 -1.36364 215.97 -0.468207 215.97 0.636363H217.97ZM223.474 0.636363H225.474C225.474 -0.468207 224.579 -1.36364 223.474 -1.36364V0.636363ZM221.681 31.3182L223.387 32.3623L223.39 32.3577L221.681 31.3182ZM216.638 35.9347L217.552 37.7137L217.56 37.7097L216.638 35.9347ZM201.422 35.9347L200.5 37.7097L200.508 37.7137L201.422 35.9347ZM196.379 31.3182L194.671 32.3578L194.673 32.3623L196.379 31.3182ZM194.586 0.636363V-1.36364C193.481 -1.36364 192.586 -0.468207 192.586 0.636363H194.586ZM200.072 0.636363H202.072C202.072 -0.468207 201.177 -1.36364 200.072 -1.36364V0.636363ZM201.155 28.495L199.414 29.4786L199.421 29.4908L201.155 28.495ZM204.263 31.5135L203.301 33.2669L203.313 33.2734L204.263 31.5135ZM213.797 31.5135L214.748 33.2734L214.753 33.2705L213.797 31.5135ZM216.887 28.495L215.146 27.5114L215.139 27.5237L216.887 28.495ZM217.97 2.63636H223.474V-1.36364H217.97V2.63636ZM221.474 0.636363V24.5533H225.474V0.636363H221.474ZM221.474 24.5533C221.474 26.7718 220.958 28.6596 219.972 30.2786L223.39 32.3577C224.796 30.0469 225.474 27.4247 225.474 24.5533H221.474ZM219.975 30.274C218.982 31.8961 217.582 33.1913 215.717 34.1596L217.56 37.7097C220.027 36.429 221.989 34.6465 223.387 32.3623L219.975 30.274ZM215.725 34.1556C213.891 35.0973 211.677 35.6037 209.021 35.6037V39.6037C212.189 39.6037 215.053 38.9974 217.552 37.7137L215.725 34.1556ZM209.021 35.6037C206.379 35.6037 204.17 35.0978 202.336 34.1556L200.508 37.7137C203.006 38.9969 205.864 39.6037 209.021 39.6037V35.6037ZM202.343 34.1596C200.478 33.1913 199.078 31.8961 198.085 30.274L194.673 32.3623C196.072 34.6465 198.033 36.429 200.5 37.7097L202.343 34.1596ZM198.088 30.2786C197.103 28.6596 196.586 26.7718 196.586 24.5533H192.586C192.586 27.4247 193.265 30.0469 194.671 32.3577L198.088 30.2786ZM196.586 24.5533V0.636363H192.586V24.5533H196.586ZM194.586 2.63636H200.072V-1.36364H194.586V2.63636ZM198.072 0.636363V24.1094H202.072V0.636363H198.072ZM198.072 24.1094C198.072 26.057 198.503 27.8652 199.414 29.4786L202.897 27.5114C202.364 26.568 202.072 25.4525 202.072 24.1094H198.072ZM199.421 29.4908C200.344 31.0994 201.653 32.3627 203.301 33.2669L205.225 29.7601C204.198 29.1965 203.434 28.4475 202.89 27.4993L199.421 29.4908ZM203.313 33.2734C204.997 34.1826 206.923 34.5966 209.021 34.5966V30.5966C207.45 30.5966 206.204 30.2885 205.213 29.7536L203.313 33.2734ZM209.021 34.5966C211.129 34.5966 213.062 34.1835 214.748 33.2734L212.847 29.7536C211.858 30.2876 210.607 30.5966 209.021 30.5966V34.5966ZM214.753 33.2705C216.418 32.3648 217.731 31.0937 218.635 29.4663L215.139 27.5237C214.622 28.4532 213.876 29.1944 212.842 29.7565L214.753 33.2705ZM218.628 29.4786C219.54 27.8652 219.97 26.057 219.97 24.1094H215.97C215.97 25.4525 215.678 26.568 215.146 27.5114L218.628 29.4786ZM219.97 24.1094V0.636363H215.97V24.1094H219.97ZM261.653 12.4616V14.4616C262.238 14.4616 262.794 14.2057 263.174 13.7611C263.554 13.3166 263.72 12.728 263.629 12.1503L261.653 12.4616ZM256.114 12.4616L254.145 12.816C254.317 13.7685 255.146 14.4616 256.114 14.4616V12.4616ZM252.793 7.04616L253.99 5.44346L253.99 5.44346L252.793 7.04616ZM249.97 5.62571L249.377 7.53585L249.384 7.53774L249.97 5.62571ZM241.057 6.72656L239.984 5.03873L239.978 5.04224L241.057 6.72656ZM237.151 11.3608L235.341 10.5087L235.337 10.5173L237.151 11.3608ZM237.151 26.3111L235.337 27.1546L235.341 27.1632L237.151 26.3111ZM241.075 30.9276L240.01 32.6208L240.01 32.6208L241.075 30.9276ZM249.935 32.0284L250.507 33.9447C250.512 33.9433 250.517 33.9419 250.521 33.9404L249.935 32.0284ZM252.758 30.6257L251.576 29.0122L252.758 30.6257ZM254.889 28.3707L253.218 27.2715L253.214 27.2768L254.889 28.3707ZM256.114 25.2812L256.12 23.2813C255.16 23.2782 254.333 23.9579 254.15 24.9006L256.114 25.2812ZM261.653 25.299L263.627 25.6257C263.722 25.0471 263.559 24.4557 263.181 24.0079C262.802 23.56 262.246 23.3009 261.66 23.299L261.653 25.299ZM259.931 30.2351L258.191 29.2487L258.189 29.2533L259.931 30.2351ZM256.682 34.1058L257.95 35.6525L257.951 35.6513L256.682 34.1058ZM252.172 36.6094L252.832 38.4973L252.832 38.4973L252.172 36.6094ZM238.216 35.2599L237.174 36.9669L237.18 36.9706L238.216 35.2599ZM232.392 28.8146L230.606 29.7151L230.609 29.7211L232.392 28.8146ZM232.41 8.82173L234.191 9.73129L234.193 9.72822L232.41 8.82173ZM238.234 2.39418L239.27 4.1048L239.276 4.10114L238.234 2.39418ZM252.03 0.973722L251.397 2.87109C251.403 2.87287 251.408 2.87464 251.414 2.87638L252.03 0.973722ZM256.558 3.38849L255.312 4.95295L255.32 4.95968L256.558 3.38849ZM259.878 7.25923L258.143 8.25441L258.146 8.26024L259.878 7.25923ZM261.653 10.4616H256.114V14.4616H261.653V10.4616ZM258.082 12.1073C257.828 10.6959 257.345 9.40014 256.605 8.2529L253.243 10.4204C253.664 11.0724 253.973 11.8599 254.145 12.816L258.082 12.1073ZM256.605 8.2529C255.898 7.15699 255.025 6.2165 253.99 5.44346L251.597 8.64887C252.242 9.13056 252.79 9.71706 253.243 10.4204L256.605 8.2529ZM253.99 5.44346C252.958 4.67344 251.809 4.09797 250.557 3.71368L249.384 7.53774C250.214 7.79265 250.948 8.16415 251.597 8.64887L253.99 5.44346ZM250.563 3.71558C249.327 3.33206 248.031 3.14631 246.685 3.14631V7.14631C247.66 7.14631 248.554 7.28016 249.377 7.53584L250.563 3.71558ZM246.685 3.14631C244.237 3.14631 241.984 3.76753 239.984 5.03874L242.13 8.41438C243.445 7.57858 244.944 7.14631 246.685 7.14631V3.14631ZM239.978 5.04224C237.97 6.32816 236.436 8.18488 235.341 10.5087L238.96 12.2129C239.783 10.4647 240.853 9.23197 242.135 8.41089L239.978 5.04224ZM235.337 10.5173C234.236 12.8856 233.73 15.677 233.73 18.8182H237.73C237.73 16.0882 238.172 13.908 238.964 12.2043L235.337 10.5173ZM233.73 18.8182C233.73 21.9804 234.235 24.7844 235.337 27.1545L238.964 25.4676C238.173 23.7658 237.73 21.5746 237.73 18.8182H233.73ZM235.341 27.1632C236.438 29.492 237.983 31.3466 240.01 32.6208L242.139 29.2343C240.852 28.4251 239.781 27.2022 238.96 25.459L235.341 27.1632ZM240.01 32.6208C242.005 33.8748 244.243 34.4901 246.668 34.4901V30.4901C244.95 30.4901 243.458 30.0637 242.139 29.2343L240.01 32.6208ZM246.668 34.4901C247.997 34.4901 249.28 34.3116 250.507 33.9447L249.362 30.1122C248.53 30.3607 247.635 30.4901 246.668 30.4901V34.4901ZM250.521 33.9404C251.767 33.5583 252.911 32.9928 253.94 32.2392L251.576 29.0122C250.924 29.4897 250.186 29.8593 249.348 30.1164L250.521 33.9404ZM253.94 32.2392C254.978 31.479 255.854 30.5502 256.563 29.4646L253.214 27.2768C252.763 27.9669 252.219 28.5414 251.576 29.0122L253.94 32.2392ZM256.559 29.47C257.308 28.3319 257.807 27.0532 258.077 25.6619L254.15 24.9006C253.97 25.8293 253.653 26.6104 253.218 27.2715L256.559 29.47ZM256.107 27.2812L261.647 27.299L261.66 23.299L256.12 23.2813L256.107 27.2812ZM259.68 24.9723C259.421 26.5392 258.922 27.9597 258.191 29.2487L261.671 31.2215C262.645 29.5039 263.294 27.6336 263.627 25.6257L259.68 24.9723ZM258.189 29.2533C257.47 30.5287 256.547 31.628 255.412 32.5604L257.951 35.6513C259.468 34.4056 260.711 32.9244 261.674 31.2169L258.189 29.2533ZM255.414 32.5592C254.291 33.4798 252.996 34.2026 251.512 34.7215L252.832 38.4973C254.733 37.8325 256.445 36.8862 257.95 35.6525L255.414 32.5592ZM251.512 34.7215C250.054 35.2311 248.434 35.4972 246.632 35.4972V39.4972C248.832 39.4972 250.904 39.1714 252.832 38.4973L251.512 34.7215ZM246.632 35.4972C243.813 35.4972 241.373 34.834 239.252 33.5493L237.18 36.9706C239.983 38.6689 243.154 39.4972 246.632 39.4972V35.4972ZM239.258 33.553C237.14 32.2593 235.442 30.401 234.175 27.9081L230.609 29.7211C232.183 32.8154 234.368 35.2539 237.174 36.9669L239.258 33.553ZM234.178 27.9142C232.94 25.4583 232.279 22.4489 232.279 18.8182H228.279C228.279 22.9289 229.027 26.5838 230.606 29.7151L234.178 27.9142ZM232.279 18.8182C232.279 15.1765 232.945 12.1712 234.191 9.73129L230.629 7.91218C229.034 11.0357 228.279 14.6947 228.279 18.8182H232.279ZM234.193 9.72822C235.46 7.23648 237.155 5.38603 239.27 4.10479L237.198 0.683558C234.388 2.38527 232.201 4.81986 230.627 7.91524L234.193 9.72822ZM239.276 4.10114C241.397 2.8061 243.83 2.1392 246.632 2.1392V-1.8608C243.161 -1.8608 239.995 -1.02438 237.192 0.687206L239.276 4.10114ZM246.632 2.1392C248.367 2.1392 249.951 2.38897 251.397 2.87109L252.662 -0.923644C250.771 -1.55421 248.756 -1.8608 246.632 -1.8608V2.1392ZM251.414 2.87638C252.874 3.34937 254.168 4.0422 255.312 4.95293L257.804 1.82406C256.272 0.604108 254.548 -0.312913 252.646 -0.928937L251.414 2.87638ZM255.32 4.95968C256.45 5.8494 257.39 6.94181 258.143 8.2544L261.613 6.26406C260.614 4.52268 259.341 3.0346 257.795 1.81731L255.32 4.95968ZM258.146 8.26024C258.884 9.53665 259.403 11.0315 259.678 12.773L263.629 12.1503C263.288 9.98555 262.623 8.01211 261.609 6.25822L258.146 8.26024ZM268.219 37H266.219C266.219 38.1046 267.114 39 268.219 39V37ZM268.219 0.636363V-1.36364C267.114 -1.36364 266.219 -0.468207 266.219 0.636363H268.219ZM291.017 0.636363H293.017C293.017 -0.468207 292.122 -1.36364 291.017 -1.36364V0.636363ZM291.017 5.35938V7.35938C292.122 7.35938 293.017 6.46394 293.017 5.35938H291.017ZM273.705 5.35938V3.35938C272.601 3.35938 271.705 4.25481 271.705 5.35938H273.705ZM273.705 16.4389H271.705C271.705 17.5435 272.601 18.4389 273.705 18.4389V16.4389ZM289.827 16.4389H291.827C291.827 15.3344 290.932 14.4389 289.827 14.4389V16.4389ZM289.827 21.1442V23.1442C290.932 23.1442 291.827 22.2487 291.827 21.1442H289.827ZM273.705 21.1442V19.1442C272.601 19.1442 271.705 20.0396 271.705 21.1442H273.705ZM273.705 32.277H271.705C271.705 33.3816 272.601 34.277 273.705 34.277V32.277ZM291.23 32.277H293.23C293.23 31.1724 292.335 30.277 291.23 30.277V32.277ZM291.23 37V39C292.335 39 293.23 38.1046 293.23 37H291.23ZM270.219 37V0.636363H266.219V37H270.219ZM268.219 2.63636H291.017V-1.36364H268.219V2.63636ZM289.017 0.636363V5.35938H293.017V0.636363H289.017ZM291.017 3.35938H273.705V7.35938H291.017V3.35938ZM271.705 5.35938V16.4389H275.705V5.35938H271.705ZM273.705 18.4389H289.827V14.4389H273.705V18.4389ZM287.827 16.4389V21.1442H291.827V16.4389H287.827ZM289.827 19.1442H273.705V23.1442H289.827V19.1442ZM271.705 21.1442V32.277H275.705V21.1442H271.705ZM273.705 34.277H291.23V30.277H273.705V34.277ZM289.23 32.277V37H293.23V32.277H289.23ZM291.23 35H268.219V39H291.23V35ZM309.785 5.35938H307.785C307.785 6.46394 308.68 7.35938 309.785 7.35938V5.35938ZM309.785 0.636363V-1.36364C308.68 -1.36364 307.785 -0.468207 307.785 0.636363H309.785ZM337.927 0.636363H339.927C339.927 -0.468207 339.032 -1.36364 337.927 -1.36364V0.636363ZM337.927 5.35938V7.35938C339.032 7.35938 339.927 6.46394 339.927 5.35938H337.927ZM326.582 5.35938V3.35938C325.477 3.35938 324.582 4.25481 324.582 5.35938H326.582ZM326.582 37V39C327.686 39 328.582 38.1046 328.582 37H326.582ZM321.113 37H319.113C319.113 38.1046 320.008 39 321.113 39V37ZM321.113 5.35938H323.113C323.113 4.25481 322.217 3.35938 321.113 3.35938V5.35938ZM311.785 5.35938V0.636363H307.785V5.35938H311.785ZM309.785 2.63636H337.927V-1.36364H309.785V2.63636ZM335.927 0.636363V5.35938H339.927V0.636363H335.927ZM337.927 3.35938H326.582V7.35938H337.927V3.35938ZM324.582 5.35938V37H328.582V5.35938H324.582ZM326.582 35H321.113V39H326.582V35ZM323.113 37V5.35938H319.113V37H323.113ZM321.113 3.35938H309.785V7.35938H321.113V3.35938ZM349.633 0.636363H351.633C351.633 -0.468207 350.737 -1.36364 349.633 -1.36364V0.636363ZM349.633 37V39C350.737 39 351.633 38.1046 351.633 37H349.633ZM344.146 37H342.146C342.146 38.1046 343.042 39 344.146 39V37ZM344.146 0.636363V-1.36364C343.042 -1.36364 342.146 -0.468207 342.146 0.636363H344.146ZM347.633 0.636363V37H351.633V0.636363H347.633ZM349.633 35H344.146V39H349.633V35ZM346.146 37V0.636363H342.146V37H346.146ZM344.146 2.63636H349.633V-1.36364H344.146V2.63636ZM355.83 5.35938H353.83C353.83 6.46394 354.725 7.35938 355.83 7.35938V5.35938ZM355.83 0.636363V-1.36364C354.725 -1.36364 353.83 -0.468207 353.83 0.636363H355.83ZM383.972 0.636363H385.972C385.972 -0.468207 385.077 -1.36364 383.972 -1.36364V0.636363ZM383.972 5.35938V7.35938C385.077 7.35938 385.972 6.46394 385.972 5.35938H383.972ZM372.627 5.35938V3.35938C371.522 3.35938 370.627 4.25481 370.627 5.35938H372.627ZM372.627 37V39C373.731 39 374.627 38.1046 374.627 37H372.627ZM367.158 37H365.158C365.158 38.1046 366.053 39 367.158 39V37ZM367.158 5.35938H369.158C369.158 4.25481 368.262 3.35938 367.158 3.35938V5.35938ZM357.83 5.35938V0.636363H353.83V5.35938H357.83ZM355.83 2.63636H383.972V-1.36364H355.83V2.63636ZM381.972 0.636363V5.35938H385.972V0.636363H381.972ZM383.972 3.35938H372.627V7.35938H383.972V3.35938ZM370.627 5.35938V37H374.627V5.35938H370.627ZM372.627 35H367.158V39H372.627V35ZM369.158 37V5.35938H365.158V37H369.158ZM367.158 3.35938H355.83V7.35938H367.158V3.35938ZM390.191 37H388.191C388.191 38.1046 389.087 39 390.191 39V37ZM390.191 0.636363V-1.36364C389.087 -1.36364 388.191 -0.468207 388.191 0.636363H390.191ZM395.678 0.636363H397.678C397.678 -0.468207 396.782 -1.36364 395.678 -1.36364V0.636363ZM395.678 32.277H393.678C393.678 33.3816 394.573 34.277 395.678 34.277V32.277ZM412.155 32.277H414.155C414.155 31.1724 413.26 30.277 412.155 30.277V32.277ZM412.155 37V39C413.26 39 414.155 38.1046 414.155 37H412.155ZM392.191 37V0.636363H388.191V37H392.191ZM390.191 2.63636H395.678V-1.36364H390.191V2.63636ZM393.678 0.636363V32.277H397.678V0.636363H393.678ZM395.678 34.277H412.155V30.277H395.678V34.277ZM410.155 32.277V37H414.155V32.277H410.155ZM412.155 35H390.191V39H412.155V35ZM418.414 37H416.414C416.414 38.1046 417.309 39 418.414 39V37ZM418.414 0.636363V-1.36364C417.309 -1.36364 416.414 -0.468207 416.414 0.636363H418.414ZM441.212 0.636363H443.212C443.212 -0.468207 442.317 -1.36364 441.212 -1.36364V0.636363ZM441.212 5.35938V7.35938C442.317 7.35938 443.212 6.46394 443.212 5.35938H441.212ZM423.9 5.35938V3.35938C422.796 3.35938 421.9 4.25481 421.9 5.35938H423.9ZM423.9 16.4389H421.9C421.9 17.5435 422.796 18.4389 423.9 18.4389V16.4389ZM440.023 16.4389H442.023C442.023 15.3344 441.127 14.4389 440.023 14.4389V16.4389ZM440.023 21.1442V23.1442C441.127 23.1442 442.023 22.2487 442.023 21.1442H440.023ZM423.9 21.1442V19.1442C422.796 19.1442 421.9 20.0396 421.9 21.1442H423.9ZM423.9 32.277H421.9C421.9 33.3816 422.796 34.277 423.9 34.277V32.277ZM441.425 32.277H443.425C443.425 31.1724 442.53 30.277 441.425 30.277V32.277ZM441.425 37V39C442.53 39 443.425 38.1046 443.425 37H441.425ZM420.414 37V0.636363H416.414V37H420.414ZM418.414 2.63636H441.212V-1.36364H418.414V2.63636ZM439.212 0.636363V5.35938H443.212V0.636363H439.212ZM441.212 3.35938H423.9V7.35938H441.212V3.35938ZM421.9 5.35938V16.4389H425.9V5.35938H421.9ZM423.9 18.4389H440.023V14.4389H423.9V18.4389ZM438.023 16.4389V21.1442H442.023V16.4389H438.023ZM440.023 19.1442H423.9V23.1442H440.023V19.1442ZM421.9 21.1442V32.277H425.9V21.1442H421.9ZM423.9 34.277H441.425V30.277H423.9V34.277ZM439.425 32.277V37H443.425V32.277H439.425ZM441.425 35H418.414V39H441.425V35Z" fill="#3E3D68" mask="url(#path-1-outside-1_26_121)"/>
<defs>
<filter id="filter0_i_26_121" x="4.44916" y="0.139191" width="436.976" height="41.4645" filterUnits="userSpaceOnUse" color-interpolation-filters="sRGB">
<feFlood flood-opacity="0" result="BackgroundImageFix"/>
<feBlend mode="normal" in="SourceGraphic" in2="BackgroundImageFix" result="shape"/>
<feColorMatrix in="SourceAlpha" type="matrix" values="0 0 0 0 0 0 0 0 0 0 0 0 0 0 0 0 0 0 127 0" result="hardAlpha"/>
<feOffset dy="4"/>
<feGaussianBlur stdDeviation="2.25"/>
<feComposite in2="hardAlpha" operator="arithmetic" k2="-1" k3="1"/>
<feColorMatrix type="matrix" values="0 0 0 0 0 0 0 0 0 0 0 0 0 0 0 0 0 0 0.25 0"/>
<feBlend mode="normal" in2="shape" result="effect1_innerShadow_26_121"/>
</filter>
<linearGradient id="paint0_linear_26_121" x1="222.5" y1="1" x2="222.5" y2="37" gradientUnits="userSpaceOnUse">
<stop offset="0.151042" stop-color="#5C9DC2" stop-opacity="0"/>
<stop offset="0.817708" stop-color="#63D26E"/>
</linearGradient>
</defs>
</svg>
